<svg width="163" height="36" viewBox="0 0 163 36" fill="none" xmlns="http://www.w3.org/2000/svg">
<g clip-path="url(#clip0_54_1319)">
<path d="M21.4286 0H0V1.13327H21.4286V0Z" fill="black"/>
<path d="M20.6738 2.05298H0.754822V3.7423H20.6738V2.05298Z" fill="black"/>
<path d="M19.8549 4.46765H1.5719V5.77216H19.8549V4.46765Z" fill="black"/>
<path d="M2.76824 5.77209H2.20215V17.0605H2.76824V5.77209Z" fill="black"/>
<path d="M9.72928 5.77209H5.66095V21.507H9.72928V5.77209Z" fill="black"/>
<path d="M15.7884 5.77209H11.6993V21.507H15.7884V5.77209Z" fill="black"/>
<path d="M19.2473 5.77209H18.6604V17.0605H19.2473V5.77209Z" fill="black"/>
<path d="M19.2473 22.6403H2.20215L10.7238 34.9754L19.2473 22.6403Z" fill="black" stroke="black" stroke-miterlimit="10"/>
<path d="M13.6638 33.0899C11.7472 33.4316 9.72447 33.4316 7.80786 33.0899V32.0123C9.69718 32.4673 11.7744 32.4673 13.6638 32.0123V33.0899Z" fill="white"/>
</g>
<path d="M33.1334 20.6092H27.5003V19.8277C27.7626 19.8009 28.0711 19.7375 28.4258 19.6373C28.7804 19.5304 28.9578 19.4001 28.9578 19.2465C28.9578 19.1931 28.9529 19.1329 28.9432 19.0661C28.9383 18.9993 28.9189 18.9092 28.8849 18.7956L28.0031 15.8497H24.4323C24.3497 16.1236 24.2574 16.4442 24.1554 16.8116C24.0582 17.179 23.9732 17.5063 23.9004 17.7936C23.808 18.1677 23.7522 18.4382 23.7327 18.6052C23.7182 18.7722 23.7109 18.8891 23.7109 18.9559C23.7109 19.1697 23.8275 19.3534 24.0607 19.507C24.2987 19.654 24.6922 19.7609 25.2412 19.8277V20.6092H21V19.8277C21.1603 19.8143 21.3401 19.7809 21.5393 19.7275C21.7433 19.6673 21.9036 19.5872 22.0202 19.487C22.2194 19.3267 22.387 19.1296 22.5231 18.8958C22.6639 18.662 22.7805 18.3848 22.8728 18.0641C23.4364 16.187 23.9999 14.3066 24.5635 12.4228C25.1319 10.5391 25.7586 8.46159 26.4436 6.19038H27.9011C28.8533 9.41015 29.599 11.9552 30.1383 13.8257C30.6776 15.6961 31.1367 17.2458 31.5156 18.475C31.5788 18.6754 31.6589 18.8591 31.7561 19.0261C31.8532 19.1864 31.9917 19.34 32.1715 19.487C32.3075 19.5939 32.4654 19.674 32.6451 19.7275C32.8249 19.7809 32.9876 19.8143 33.1334 19.8277V20.6092ZM27.7043 14.8577L26.2031 9.70742L24.7238 14.8577H27.7043Z" fill="black"/>
<path d="M42.5486 7.85371C43.1802 8.42151 43.6903 9.17969 44.0789 10.1283C44.4676 11.0701 44.6619 12.2258 44.6619 13.5952C44.6619 14.7976 44.487 15.8464 44.1372 16.7415C43.7923 17.6299 43.3332 18.3581 42.7599 18.9259C42.177 19.4937 41.5138 19.9178 40.7705 20.1984C40.0321 20.4723 39.2572 20.6092 38.4458 20.6092H33.2354V19.8277C33.3909 19.821 33.5852 19.8009 33.8184 19.7675C34.0516 19.7341 34.2071 19.6941 34.2848 19.6473C34.4597 19.5471 34.5811 19.4135 34.6492 19.2465C34.7172 19.0728 34.7512 18.8657 34.7512 18.6253V8.54509C34.7512 8.31797 34.7196 8.11423 34.6564 7.93387C34.5933 7.74683 34.4694 7.59653 34.2848 7.48297C34.1002 7.36941 33.9034 7.29259 33.6945 7.25251C33.4905 7.21242 33.3326 7.1857 33.2208 7.17234V6.39078H38.7228C39.3106 6.39078 39.9397 6.49432 40.6102 6.7014C41.2806 6.90848 41.9268 7.29259 42.5486 7.85371ZM41.062 18.0441C41.3 17.5097 41.4725 16.8751 41.5794 16.1403C41.6911 15.3988 41.747 14.5471 41.747 13.5852C41.747 12.6433 41.6741 11.7849 41.5284 11.01C41.3826 10.2351 41.1689 9.57381 40.8871 9.02605C40.6053 8.47829 40.2531 8.05411 39.8304 7.75351C39.4126 7.45291 38.9365 7.30261 38.4021 7.30261C38.2321 7.30261 38.0378 7.30929 37.8191 7.32265C37.6054 7.32933 37.4451 7.33601 37.3382 7.34269V18.1343C37.3382 18.3748 37.36 18.5885 37.4038 18.7756C37.4523 18.9559 37.5325 19.1162 37.6442 19.2565C37.756 19.3968 37.892 19.507 38.0523 19.5872C38.2175 19.6607 38.4313 19.6974 38.6936 19.6974C39.2426 19.6974 39.7138 19.5571 40.1074 19.2766C40.5009 18.996 40.8191 18.5852 41.062 18.0441Z" fill="black"/>
<path d="M56.8536 7.19238C56.6933 7.21242 56.5403 7.25251 56.3945 7.31263C56.2488 7.37275 56.0982 7.46627 55.9427 7.59319C55.7338 7.76019 55.571 7.94055 55.4545 8.13427C55.3427 8.32131 55.231 8.58183 55.1192 8.91583C54.9686 9.37675 54.7573 10.0514 54.4852 10.9399C54.2132 11.8216 53.9023 12.827 53.5525 13.9559C53.2415 14.9713 52.9039 16.0835 52.5395 17.2926C52.18 18.5017 51.8351 19.6607 51.5047 20.7695H50.04C49.3598 18.4783 48.6675 16.1503 47.9631 13.7856C47.2586 11.4208 46.7631 9.77756 46.4765 8.85571C46.3647 8.52171 46.2554 8.27121 46.1485 8.10421C46.0465 7.93053 45.8813 7.75351 45.653 7.57315C45.4878 7.44623 45.3421 7.35939 45.2158 7.31263C45.0895 7.25919 44.9218 7.21242 44.7129 7.17234V6.39078H50.3169V7.1523C49.7922 7.23915 49.4351 7.33267 49.2457 7.43287C49.061 7.52639 48.9687 7.64663 48.9687 7.79359C48.9687 7.86707 48.976 7.94723 48.9906 8.03407C49.01 8.11423 49.0368 8.22445 49.0708 8.36473C49.2262 8.95257 49.508 9.9145 49.9161 11.2505C50.3242 12.5798 50.929 14.6106 51.7306 17.3427C52.2213 15.6794 52.6294 14.2732 52.9549 13.1242C53.2804 11.9753 53.567 10.9599 53.8148 10.0782C53.9363 9.65063 54.0359 9.25317 54.1136 8.88577C54.1962 8.51169 54.2375 8.23113 54.2375 8.04409C54.2375 7.83033 54.1257 7.65331 53.9023 7.51303C53.6788 7.36607 53.2658 7.25919 52.6634 7.19238V6.39078H56.8536V7.19238Z" fill="black"/>
<path d="M66.6186 7.97395C67.1287 8.61523 67.532 9.39011 67.8283 10.2986C68.1295 11.2071 68.2801 12.2425 68.2801 13.4048C68.2801 14.4402 68.1538 15.4255 67.9012 16.3607C67.6486 17.2959 67.2842 18.1009 66.8081 18.7756C66.3077 19.477 65.7199 20.0247 65.0446 20.4188C64.3693 20.8063 63.5652 21 62.6325 21C61.8794 21 61.1677 20.8297 60.4973 20.489C59.8268 20.1483 59.2366 19.654 58.7265 19.006C58.2212 18.3714 57.8204 17.5999 57.5241 16.6914C57.2277 15.7829 57.0795 14.7709 57.0795 13.6553C57.0795 12.493 57.2228 11.4409 57.5095 10.499C57.801 9.55043 58.1993 8.73881 58.7046 8.06413C59.205 7.40281 59.7977 6.89512 60.4827 6.54108C61.1726 6.18036 61.9062 6 62.6835 6C63.4559 6 64.1798 6.17368 64.8551 6.52104C65.5352 6.8684 66.1231 7.35271 66.6186 7.97395ZM64.7458 18.1443C64.9644 17.5364 65.1223 16.8484 65.2195 16.0802C65.3166 15.312 65.3652 14.4436 65.3652 13.475C65.3652 12.6533 65.3215 11.855 65.234 11.0802C65.1514 10.2986 65.0081 9.60387 64.8041 8.99599C64.5952 8.38811 64.3183 7.90047 63.9733 7.53307C63.6284 7.16566 63.1984 6.98196 62.6835 6.98196C61.8041 6.98196 61.1361 7.55645 60.6795 8.70541C60.2228 9.8477 59.9945 11.4643 59.9945 13.5551C59.9945 14.4436 60.043 15.2819 60.1402 16.0701C60.2422 16.8584 60.4001 17.5464 60.6139 18.1343C60.8325 18.7288 61.1094 19.1931 61.4446 19.5271C61.7798 19.8544 62.1928 20.018 62.6835 20.018C63.1644 20.018 63.5774 19.851 63.9223 19.517C64.2673 19.183 64.5417 18.7255 64.7458 18.1443Z" fill="black"/>
<path d="M74.7294 20.99C73.9715 20.99 73.2622 20.823 72.6015 20.489C71.9408 20.1483 71.3651 19.6573 70.8744 19.016C70.3935 18.3881 70.0145 17.6132 69.7376 16.6914C69.4607 15.7629 69.3222 14.7442 69.3222 13.6353C69.3222 12.5331 69.4607 11.5144 69.7376 10.5792C70.0194 9.63727 70.4129 8.82231 70.9181 8.13427C71.4137 7.45959 72.0088 6.93854 72.7035 6.57114C73.3983 6.19706 74.1416 6.01002 74.9335 6.01002C75.5067 6.01002 76.029 6.10688 76.5002 6.3006C76.9715 6.48764 77.3699 6.7014 77.6954 6.94188L78.1472 6.39078H78.7812L78.8468 11.5812H78.2055C77.8411 9.998 77.4039 8.83567 76.8938 8.09419C76.3836 7.35271 75.7618 6.98196 75.0282 6.98196C74.1149 6.98196 73.4201 7.53641 72.944 8.64529C72.4679 9.7475 72.2299 11.2973 72.2299 13.2946C72.2299 14.4235 72.31 15.3888 72.4703 16.1904C72.6355 16.9853 72.8493 17.6266 73.1116 18.1142C73.3934 18.6219 73.7262 18.996 74.11 19.2365C74.4938 19.4703 74.9189 19.5872 75.3853 19.5872C76.0654 19.5872 76.6703 19.3333 77.1998 18.8257C77.7342 18.318 78.22 17.5498 78.6573 16.521L79.284 17.0421C79.0751 17.6299 78.837 18.1576 78.5698 18.6253C78.3026 19.0862 77.9941 19.4836 77.6443 19.8176C77.2605 20.185 76.8355 20.4723 76.3691 20.6794C75.9075 20.8864 75.361 20.99 74.7294 20.99Z" fill="black"/>
<path d="M91.2133 20.6092H85.5802V19.8277C85.8426 19.8009 86.1511 19.7375 86.5057 19.6373C86.8604 19.5304 87.0377 19.4001 87.0377 19.2465C87.0377 19.1931 87.0328 19.1329 87.0231 19.0661C87.0183 18.9993 86.9988 18.9092 86.9648 18.7956L86.0831 15.8497H82.5123C82.4297 16.1236 82.3374 16.4442 82.2354 16.8116C82.1382 17.179 82.0532 17.5063 81.9803 17.7936C81.888 18.1677 81.8321 18.4382 81.8127 18.6052C81.7981 18.7722 81.7908 18.8891 81.7908 18.9559C81.7908 19.1697 81.9074 19.3534 82.1406 19.507C82.3787 19.654 82.7722 19.7609 83.3212 19.8277V20.6092H79.0799V19.8277C79.2403 19.8143 79.42 19.7809 79.6192 19.7275C79.8233 19.6673 79.9836 19.5872 80.1002 19.487C80.2994 19.3267 80.467 19.1296 80.603 18.8958C80.7439 18.662 80.8605 18.3848 80.9528 18.0641C81.5163 16.187 82.0799 14.3066 82.6434 12.4228C83.2119 10.5391 83.8386 8.46159 84.5236 6.19038H85.981C86.9333 9.41015 87.679 11.9552 88.2182 13.8257C88.7575 15.6961 89.2166 17.2458 89.5956 18.475C89.6587 18.6754 89.7389 18.8591 89.836 19.0261C89.9332 19.1864 90.0717 19.34 90.2514 19.487C90.3874 19.5939 90.5453 19.674 90.7251 19.7275C90.9048 19.7809 91.0676 19.8143 91.2133 19.8277V20.6092ZM85.7843 14.8577L84.2831 9.70742L82.8038 14.8577H85.7843Z" fill="black"/>
<path d="M100.927 10.4589H100.366C100.216 9.85104 99.9727 9.19973 99.6375 8.50501C99.3071 7.81029 99.0011 7.43621 98.7193 7.38277C98.5638 7.35605 98.3719 7.33267 98.1436 7.31263C97.9152 7.29259 97.7185 7.28257 97.5533 7.28257H97.2108V18.4349C97.2108 18.6754 97.2424 18.8891 97.3055 19.0762C97.3687 19.2565 97.4926 19.4001 97.6772 19.507C97.7889 19.5671 97.9614 19.6306 98.1946 19.6974C98.4326 19.7575 98.6343 19.8009 98.7994 19.8277V20.6092H93.0352V19.8277C93.1761 19.8076 93.3728 19.7809 93.6254 19.7475C93.8829 19.7074 94.0578 19.6607 94.1501 19.6072C94.3396 19.5003 94.4659 19.3567 94.5291 19.1764C94.5922 18.996 94.6238 18.7822 94.6238 18.5351V7.28257H94.2813C94.1161 7.28257 93.9194 7.29259 93.691 7.31263C93.4627 7.33267 93.2708 7.35605 93.1153 7.38277C92.8335 7.43621 92.5251 7.81029 92.1898 8.50501C91.8595 9.19973 91.619 9.85104 91.4684 10.4589H90.9073V6.39078H100.927V10.4589Z" fill="black"/>
<path d="M111.086 7.97395C111.596 8.61523 111.999 9.39011 112.296 10.2986C112.597 11.2071 112.747 12.2425 112.747 13.4048C112.747 14.4402 112.621 15.4255 112.368 16.3607C112.116 17.2959 111.751 18.1009 111.275 18.7756C110.775 19.477 110.187 20.0247 109.512 20.4188C108.837 20.8063 108.032 21 107.1 21C106.347 21 105.635 20.8297 104.965 20.489C104.294 20.1483 103.704 19.654 103.194 19.006C102.688 18.3714 102.288 17.5999 101.991 16.6914C101.695 15.7829 101.547 14.7709 101.547 13.6553C101.547 12.493 101.69 11.4409 101.977 10.499C102.268 9.55043 102.667 8.73881 103.172 8.06413C103.672 7.40281 104.265 6.89512 104.95 6.54108C105.64 6.18036 106.373 6 107.151 6C107.923 6 108.647 6.17368 109.322 6.52104C110.002 6.8684 110.59 7.35271 111.086 7.97395ZM109.213 18.1443C109.432 17.5364 109.59 16.8484 109.687 16.0802C109.784 15.312 109.832 14.4436 109.832 13.475C109.832 12.6533 109.789 11.855 109.701 11.0802C109.619 10.2986 109.475 9.60387 109.271 8.99599C109.062 8.38811 108.785 7.90047 108.441 7.53307C108.096 7.16566 107.666 6.98196 107.151 6.98196C106.271 6.98196 105.603 7.55645 105.147 8.70541C104.69 9.8477 104.462 11.4643 104.462 13.5551C104.462 14.4436 104.51 15.2819 104.607 16.0701C104.709 16.8584 104.867 17.5464 105.081 18.1343C105.3 18.7288 105.577 19.1931 105.912 19.5271C106.247 19.8544 106.66 20.018 107.151 20.018C107.632 20.018 108.045 19.851 108.39 19.517C108.734 19.183 109.009 18.7255 109.213 18.1443Z" fill="black"/>
<path d="M125.646 20.6092H121.682C120.997 19.1663 120.426 18.0174 119.969 17.1623C119.517 16.3073 118.954 15.3186 118.278 14.1964H117.878V18.515C117.878 18.7555 117.909 18.9593 117.972 19.1263C118.04 19.2933 118.167 19.4335 118.351 19.5471C118.444 19.6005 118.587 19.6573 118.781 19.7174C118.98 19.7709 119.15 19.8076 119.291 19.8277V20.6092H113.775V19.8277C113.916 19.8076 114.1 19.7809 114.329 19.7475C114.562 19.7074 114.727 19.6607 114.824 19.6072C115.009 19.5003 115.133 19.3667 115.196 19.2064C115.259 19.0394 115.291 18.829 115.291 18.5752V8.54509C115.291 8.30461 115.264 8.10421 115.21 7.94389C115.157 7.78357 115.028 7.64329 114.824 7.52305C114.669 7.43621 114.484 7.36273 114.27 7.30261C114.062 7.24249 113.896 7.19906 113.775 7.17234V6.39078H119.576C120.873 6.39078 121.857 6.67134 122.527 7.23247C123.202 7.78691 123.54 8.62859 123.54 9.75752C123.54 10.7528 123.331 11.5544 122.913 12.1623C122.5 12.7635 121.869 13.2345 121.018 13.5752C121.349 14.163 121.733 14.8444 122.17 15.6192C122.612 16.3941 123.071 17.1857 123.547 17.994C123.698 18.2545 123.902 18.5752 124.159 18.9559C124.422 19.33 124.652 19.5605 124.852 19.6473C124.963 19.6941 125.104 19.7341 125.274 19.7675C125.449 19.8009 125.573 19.821 125.646 19.8277V20.6092ZM120.683 10.0381C120.683 9.08951 120.489 8.39813 120.1 7.96393C119.716 7.52305 119.168 7.30261 118.453 7.30261H117.878V13.2545H118.431C119.146 13.2545 119.699 12.9973 120.093 12.483C120.487 11.9686 120.683 11.1536 120.683 10.0381Z" fill="black"/>
<path d="M131.374 20.6092H125.639V19.8277C125.77 19.8143 125.962 19.7943 126.214 19.7675C126.472 19.7408 126.649 19.7007 126.746 19.6473C126.926 19.5471 127.048 19.4168 127.111 19.2565C127.179 19.0895 127.213 18.8791 127.213 18.6253V8.54509C127.213 8.31797 127.181 8.11757 127.118 7.94389C127.055 7.77021 126.931 7.62993 126.746 7.52305C126.63 7.45625 126.457 7.38945 126.229 7.32265C126.001 7.24917 125.804 7.19906 125.639 7.17234V6.39078H131.374V7.17234C131.228 7.19238 131.046 7.22244 130.827 7.26253C130.609 7.29593 130.424 7.34603 130.273 7.41283C130.084 7.49967 129.958 7.63661 129.894 7.82365C129.831 8.00401 129.8 8.21109 129.8 8.44489V18.515C129.8 18.7555 129.831 18.9626 129.894 19.1363C129.962 19.3033 130.089 19.4402 130.273 19.5471C130.375 19.6072 130.543 19.6673 130.776 19.7275C131.014 19.7809 131.213 19.8143 131.374 19.8277V20.6092Z" fill="black"/>
<path d="M144.25 7.17234C144.11 7.19238 143.906 7.23915 143.638 7.31263C143.376 7.37943 143.155 7.49967 142.975 7.67335C142.791 7.84035 142.659 8.14095 142.582 8.57515C142.509 9.00935 142.472 9.66065 142.472 10.5291V15.8196C142.472 17.3761 142.089 18.6286 141.321 19.5772C140.553 20.5257 139.538 21 138.275 21C136.803 21 135.664 20.5424 134.857 19.6273C134.051 18.7121 133.647 17.4362 133.647 15.7996V8.52505C133.647 8.29125 133.613 8.09085 133.545 7.92385C133.482 7.75685 133.358 7.60655 133.174 7.47295C133.047 7.38611 132.892 7.31597 132.707 7.26253C132.523 7.20908 132.372 7.17234 132.256 7.1523V6.39078H137.677V7.1523C137.522 7.16566 137.364 7.19238 137.204 7.23247C137.043 7.26587 136.881 7.31931 136.715 7.39279C136.531 7.47295 136.407 7.60655 136.344 7.79359C136.281 7.98063 136.249 8.19105 136.249 8.42485V15.5992C136.249 17.0087 136.475 18.0341 136.927 18.6754C137.379 19.3166 138.034 19.6373 138.894 19.6373C139.74 19.6373 140.403 19.2832 140.884 18.5752C141.365 17.8671 141.605 16.825 141.605 15.4489V10.6293C141.605 9.77422 141.561 9.13627 141.474 8.71543C141.391 8.28791 141.263 7.98063 141.088 7.79359C140.961 7.64663 140.74 7.51303 140.425 7.39279C140.114 7.27255 139.895 7.19906 139.769 7.17234V6.39078H144.25V7.17234Z" fill="black"/>
<path d="M159 20.6092H153.396V19.8277C153.561 19.8076 153.763 19.7742 154.001 19.7275C154.244 19.6807 154.409 19.6306 154.496 19.5772C154.676 19.477 154.805 19.34 154.883 19.1663C154.96 18.9927 154.999 18.7722 154.999 18.505V7.88377L151.443 20.3788H150.525C150.481 20.1583 150.372 19.7208 150.197 19.0661C150.027 18.4115 149.888 17.8871 149.782 17.493L147.165 7.72345V16.3707C147.165 17.1991 147.204 17.8303 147.282 18.2645C147.365 18.6921 147.496 19.006 147.675 19.2064C147.797 19.3467 148.013 19.4803 148.324 19.6072C148.64 19.7341 148.861 19.8076 148.987 19.8277V20.6092H144.542V19.8277C144.663 19.8076 144.86 19.7642 145.132 19.6974C145.409 19.6239 145.635 19.5003 145.81 19.3267C146.004 19.1396 146.135 18.8257 146.203 18.3848C146.271 17.9372 146.305 17.3026 146.305 16.481V9.43687C146.305 9.00935 146.267 8.65531 146.189 8.37475C146.111 8.08751 145.995 7.86039 145.839 7.69339C145.645 7.48631 145.446 7.35271 145.242 7.29259C145.037 7.23247 144.831 7.19238 144.622 7.17234V6.39078H149.381L151.931 15.7796L154.081 8.15431C154.154 7.87375 154.224 7.53975 154.292 7.1523C154.36 6.76486 154.397 6.51102 154.402 6.39078H158.985V7.17234C158.83 7.1857 158.667 7.21242 158.497 7.25251C158.327 7.29259 158.164 7.34603 158.009 7.41283C157.819 7.49967 157.693 7.63661 157.63 7.82365C157.572 8.01069 157.543 8.21777 157.543 8.44489V18.515C157.543 18.7555 157.572 18.9593 157.63 19.1263C157.693 19.2866 157.819 19.4269 158.009 19.5471C158.106 19.6072 158.264 19.664 158.483 19.7174C158.706 19.7709 158.879 19.8076 159 19.8277V20.6092Z" fill="black"/>
<rect x="21" width="142" height="3" fill="black"/>
<defs>
<clipPath id="clip0_54_1319">
<rect width="21.4286" height="36" fill="white"/>
</clipPath>
</defs>
</svg>
