<svg width="19" height="19" viewBox="0 0 19 19" fill="none" xmlns="http://www.w3.org/2000/svg">
<path d="M5.125 9.5L9.5 12.5625L13.875 9.5" stroke="black" stroke-opacity="0.7" stroke-width="1.5" stroke-linecap="round" stroke-linejoin="round"/>
<path d="M0.75 16.5V6.99054C0.749997 6.68834 0.828252 6.39129 0.977144 6.12832C1.12604 5.86534 1.34049 5.6454 1.59962 5.48992L8.59962 1.28992C8.8716 1.12673 9.18282 1.04053 9.5 1.04053C9.81718 1.04053 10.1284 1.12673 10.4004 1.28992L17.4004 5.48992C17.6595 5.6454 17.874 5.86534 18.0229 6.12832C18.1717 6.39129 18.25 6.68834 18.25 6.99054V16.5C18.25 16.9642 18.0656 17.4093 17.7374 17.7375C17.4092 18.0657 16.9641 18.25 16.5 18.25H2.5C2.03587 18.25 1.59075 18.0657 1.26256 17.7375C0.934374 17.4093 0.75 16.9642 0.75 16.5Z" stroke="black" stroke-opacity="0.7" stroke-width="1.5"/>
</svg>
