<svg width="18" height="18" viewBox="0 0 18 18" fill="none" xmlns="http://www.w3.org/2000/svg">
<path d="M3.9509 0.0625C3.59134 0.0625 3.23659 0.19175 2.94096 0.427562L2.89834 0.448875L2.87702 0.470875L0.728586 2.68394L0.749899 2.70456C0.434662 2.99081 0.211306 3.36404 0.108033 3.77713C0.00476037 4.19022 0.0262012 4.62465 0.169649 5.02556C0.172399 5.03106 0.166899 5.04138 0.169649 5.04688C0.752649 6.71475 2.24315 9.935 5.15402 12.8459C8.0759 15.7677 11.3388 17.1991 12.953 17.8302H12.9743C13.3789 17.964 13.8112 17.9907 14.2291 17.9078C14.647 17.8249 15.0364 17.6352 15.3593 17.3573L17.529 15.1875C18.0983 14.6182 18.0983 13.6296 17.529 13.0604L14.7364 10.2677L14.7144 10.2244C14.1451 9.65519 13.1359 9.65519 12.566 10.2244L11.191 11.5994C10.1591 11.1037 9.20991 10.4516 8.37702 9.66619C7.25159 8.59163 6.67684 7.35619 6.46509 6.87288L7.84009 5.49788C8.41759 4.92038 8.4279 3.95925 7.81809 3.39275L7.8394 3.37075L7.77546 3.30681L5.02546 0.470875L5.00415 0.449562L4.96084 0.427562C4.6755 0.194571 4.31926 0.0658022 3.9509 0.0625ZM3.9509 1.4375C4.0071 1.44077 4.06038 1.46363 4.10146 1.50212L6.85146 4.31606L6.91609 4.38069C6.91059 4.37519 6.95596 4.44806 6.87277 4.53125L5.15402 6.25L4.83159 6.55112L4.98284 6.98013C4.98284 6.98013 5.77209 9.09419 7.43171 10.6761L7.58227 10.8047C9.17934 12.2629 11.0624 13.0604 11.0624 13.0604L11.4921 13.2542L13.5333 11.2124C13.6515 11.0948 13.6295 11.0948 13.7478 11.2124L16.5624 14.0284C16.6806 14.1459 16.6806 14.1033 16.5624 14.2209L14.4566 16.3267C14.1403 16.5982 13.8041 16.6546 13.4047 16.5206C11.8468 15.908 8.81977 14.5784 6.12065 11.8799C3.40021 9.15881 1.97984 6.07331 1.4594 4.57525C1.35421 4.29544 1.42915 3.88225 1.6739 3.67256L1.71652 3.62925L3.80102 1.50281C3.84165 1.46436 3.8944 1.44127 3.95021 1.4375H3.9509Z" fill="black" fill-opacity="0.7"/>
</svg>
