<svg width="24" height="24" viewBox="0 0 24 24" fill="none" xmlns="http://www.w3.org/2000/svg">
<g clip-path="url(#clip0_24_50)">
<path d="M12 22C6.47697 22 1.99997 17.523 1.99997 12C1.99997 6.477 6.47697 2 12 2C17.523 2 22 6.477 22 12C22 17.523 17.523 22 12 22ZM8.88997 13.17L8.90297 13.163L9.77297 16.033C9.88497 16.344 10.039 16.4 10.226 16.374C10.414 16.349 10.513 16.248 10.636 16.13L11.824 14.982L14.374 16.87C14.84 17.127 15.175 16.994 15.291 16.438L16.948 8.616C17.131 7.888 16.811 7.596 16.246 7.828L6.51297 11.588C5.84897 11.854 5.85297 12.226 6.39297 12.391L8.88997 13.171V13.17Z" fill="#DE6F21" fill-opacity="0.75"/>
</g>
<defs>
<clipPath id="clip0_24_50">
<rect width="24" height="24" fill="white"/>
</clipPath>
</defs>
</svg>
